# xmcd
# Track frame offsets:
# 150
# 13742
# 29232
# 45370
# 62207
#
# Disc length: 1044 seconds
# Revision: 0
# Processed by: cddbd v1.5.2PL0 Copyright (c) Steve Scherf et al.
# Submitted via: VisiTrax 2.11.2.271 - For more info visit www.synapsa.com
#
DISCID=3f041205
DTITLE=Tim McGraw - Selections From Greatest Hits
DYEAR=1900
DGENRE=Country
TTITLE0=Indian Outlaw
TTITLE1=I Like It, I Love It
TTITLE2=Just To See You Smile
TTITLE3=It's Your Love
TTITLE4=My Next Thirty Years
EXTD=
EXTT0=
EXTT1=
EXTT2=
EXTT3=
EXTT4=
PLAYORDER=
